<mxfile host="Electron" modified="2023-11-09T20:57:20.089Z" agent="Mozilla/5.0 (Macintosh; Intel Mac OS X 10_15_7) AppleWebKit/537.36 (KHTML, like Gecko) draw.io/21.7.5 Chrome/114.0.5735.289 Electron/25.8.1 Safari/537.36" etag="tmv3MUE7b9z1MbJuYChG" version="21.7.5" type="device">
  <diagram name="Page-1" id="03018318-947c-dd8e-b7a3-06fadd420f32">
    <mxGraphModel dx="1038" dy="763" grid="1" gridSize="10" guides="1" tooltips="1" connect="1" arrows="1" fold="1" page="1" pageScale="1" pageWidth="1100" pageHeight="850" background="none" math="0" shadow="0">
      <root>
        <mxCell id="0" />
        <mxCell id="1" parent="0" />
        <mxCell id="677b7b8949515195-2" value="LOGO" style="whiteSpace=wrap;html=1;rounded=0;shadow=0;labelBackgroundColor=none;strokeWidth=1;fontFamily=Verdana;fontSize=28;align=center;comic=1;" parent="1" vertex="1">
          <mxGeometry x="30" y="60" width="190" height="50" as="geometry" />
        </mxCell>
        <mxCell id="677b7b8949515195-3" value="Search" style="strokeWidth=1;shadow=0;dashed=0;align=center;html=1;shape=mxgraph.mockup.forms.searchBox;strokeColor=#999999;mainText=;strokeColor2=#008cff;fontColor=#666666;fontSize=17;align=left;spacingLeft=3;rounded=0;labelBackgroundColor=none;comic=1;" parent="1" vertex="1">
          <mxGeometry x="317" y="70" width="413" height="30" as="geometry" />
        </mxCell>
        <mxCell id="677b7b8949515195-7" value="Warenkorb" style="text;html=1;points=[];align=left;verticalAlign=top;spacingTop=-4;fontSize=14;fontFamily=Verdana" parent="1" vertex="1">
          <mxGeometry x="870" y="75" width="120" height="20" as="geometry" />
        </mxCell>
        <mxCell id="677b7b8949515195-9" value="" style="line;strokeWidth=1;html=1;rounded=0;shadow=0;labelBackgroundColor=none;fillColor=none;fontFamily=Verdana;fontSize=14;fontColor=#000000;align=center;comic=1;" parent="1" vertex="1">
          <mxGeometry x="20" y="140" width="960" height="10" as="geometry" />
        </mxCell>
        <mxCell id="677b7b8949515195-11" value="Kategorie" style="text;html=1;points=[];align=left;verticalAlign=top;spacingTop=-4;fontSize=14;fontFamily=Verdana" parent="1" vertex="1">
          <mxGeometry x="40" y="150" width="60" height="20" as="geometry" />
        </mxCell>
        <mxCell id="677b7b8949515195-15" value="&lt;div style=&quot;text-align: justify&quot;&gt;&lt;span&gt;Lorem ipsum dolor sit amet, consectetur adipisicing elit, sed do eiusmod tempor incididunt ut labore et dolore magna aliqua. Ut enim ad&amp;nbsp;&lt;/span&gt;&lt;/div&gt;" style="whiteSpace=wrap;html=1;rounded=0;shadow=0;labelBackgroundColor=none;strokeWidth=1;fillColor=none;fontFamily=Verdana;fontSize=12;align=center;verticalAlign=top;spacing=10;comic=1;strokeColor=none;" parent="1" vertex="1">
          <mxGeometry x="160" y="330" width="140" height="160" as="geometry" />
        </mxCell>
        <mxCell id="677b7b8949515195-16" value="" style="verticalLabelPosition=bottom;shadow=0;dashed=0;align=center;html=1;verticalAlign=top;strokeWidth=1;shape=mxgraph.mockup.graphics.simpleIcon;strokeColor=#999999;rounded=0;labelBackgroundColor=none;fontFamily=Verdana;fontSize=14;fontColor=#000000;comic=1;" parent="1" vertex="1">
          <mxGeometry x="170" y="230" width="120" height="100" as="geometry" />
        </mxCell>
        <mxCell id="677b7b8949515195-27" value="Filter" style="text;html=1;points=[];align=left;verticalAlign=top;spacingTop=-4;fontSize=14;fontFamily=Verdana" parent="1" vertex="1">
          <mxGeometry x="30" y="250" width="170" height="20" as="geometry" />
        </mxCell>
        <mxCell id="677b7b8949515195-28" value="Auswahl" style="text;html=1;points=[];align=left;verticalAlign=top;spacingTop=-4;fontSize=14;fontFamily=Verdana" parent="1" vertex="1">
          <mxGeometry x="60" y="285" width="170" height="20" as="geometry" />
        </mxCell>
        <mxCell id="cQQtmC6lyxQOHg3nt5vb-1" value="Kategorie" style="text;html=1;points=[];align=left;verticalAlign=top;spacingTop=-4;fontSize=14;fontFamily=Verdana" vertex="1" parent="1">
          <mxGeometry x="220" y="150" width="60" height="20" as="geometry" />
        </mxCell>
        <mxCell id="cQQtmC6lyxQOHg3nt5vb-2" value="Kategorie" style="text;html=1;points=[];align=left;verticalAlign=top;spacingTop=-4;fontSize=14;fontFamily=Verdana" vertex="1" parent="1">
          <mxGeometry x="300" y="150" width="60" height="20" as="geometry" />
        </mxCell>
        <mxCell id="cQQtmC6lyxQOHg3nt5vb-3" value="Kategorie" style="text;html=1;points=[];align=left;verticalAlign=top;spacingTop=-4;fontSize=14;fontFamily=Verdana" vertex="1" parent="1">
          <mxGeometry x="390" y="150" width="60" height="20" as="geometry" />
        </mxCell>
        <mxCell id="cQQtmC6lyxQOHg3nt5vb-4" value="Kategorie" style="text;html=1;points=[];align=left;verticalAlign=top;spacingTop=-4;fontSize=14;fontFamily=Verdana" vertex="1" parent="1">
          <mxGeometry x="490" y="150" width="60" height="20" as="geometry" />
        </mxCell>
        <mxCell id="cQQtmC6lyxQOHg3nt5vb-5" value="Kategorie" style="text;html=1;points=[];align=left;verticalAlign=top;spacingTop=-4;fontSize=14;fontFamily=Verdana" vertex="1" parent="1">
          <mxGeometry x="580" y="150" width="60" height="20" as="geometry" />
        </mxCell>
        <mxCell id="cQQtmC6lyxQOHg3nt5vb-6" value="Kategorie" style="text;html=1;points=[];align=left;verticalAlign=top;spacingTop=-4;fontSize=14;fontFamily=Verdana" vertex="1" parent="1">
          <mxGeometry x="670" y="150" width="60" height="20" as="geometry" />
        </mxCell>
        <mxCell id="cQQtmC6lyxQOHg3nt5vb-7" value="Kategorie" style="text;html=1;points=[];align=left;verticalAlign=top;spacingTop=-4;fontSize=14;fontFamily=Verdana" vertex="1" parent="1">
          <mxGeometry x="760" y="150" width="60" height="20" as="geometry" />
        </mxCell>
        <mxCell id="cQQtmC6lyxQOHg3nt5vb-8" value="Kategorie" style="text;html=1;points=[];align=left;verticalAlign=top;spacingTop=-4;fontSize=14;fontFamily=Verdana" vertex="1" parent="1">
          <mxGeometry x="860" y="150" width="60" height="20" as="geometry" />
        </mxCell>
        <mxCell id="cQQtmC6lyxQOHg3nt5vb-10" value="Kategorie" style="text;html=1;points=[];align=left;verticalAlign=top;spacingTop=-4;fontSize=14;fontFamily=Verdana" vertex="1" parent="1">
          <mxGeometry x="130" y="150" width="60" height="20" as="geometry" />
        </mxCell>
        <mxCell id="cQQtmC6lyxQOHg3nt5vb-11" value="" style="whiteSpace=wrap;html=1;rounded=0;shadow=0;labelBackgroundColor=none;strokeWidth=1;fillColor=none;fontFamily=Verdana;fontSize=12;align=center;comic=1;" vertex="1" parent="1">
          <mxGeometry x="30" y="285" width="20" height="20" as="geometry" />
        </mxCell>
        <mxCell id="cQQtmC6lyxQOHg3nt5vb-12" value="" style="whiteSpace=wrap;html=1;rounded=0;shadow=0;labelBackgroundColor=none;strokeWidth=1;fillColor=none;fontFamily=Verdana;fontSize=12;align=center;comic=1;" vertex="1" parent="1">
          <mxGeometry x="30" y="320" width="20" height="20" as="geometry" />
        </mxCell>
        <mxCell id="cQQtmC6lyxQOHg3nt5vb-13" value="" style="whiteSpace=wrap;html=1;rounded=0;shadow=0;labelBackgroundColor=none;strokeWidth=1;fillColor=none;fontFamily=Verdana;fontSize=12;align=center;comic=1;" vertex="1" parent="1">
          <mxGeometry x="30" y="390" width="20" height="20" as="geometry" />
        </mxCell>
        <mxCell id="cQQtmC6lyxQOHg3nt5vb-14" value="" style="whiteSpace=wrap;html=1;rounded=0;shadow=0;labelBackgroundColor=none;strokeWidth=1;fillColor=none;fontFamily=Verdana;fontSize=12;align=center;comic=1;" vertex="1" parent="1">
          <mxGeometry x="30" y="355" width="20" height="20" as="geometry" />
        </mxCell>
        <mxCell id="cQQtmC6lyxQOHg3nt5vb-15" value="Auswahl" style="text;html=1;points=[];align=left;verticalAlign=top;spacingTop=-4;fontSize=14;fontFamily=Verdana" vertex="1" parent="1">
          <mxGeometry x="60" y="320" width="170" height="20" as="geometry" />
        </mxCell>
        <mxCell id="cQQtmC6lyxQOHg3nt5vb-16" value="Auswahl" style="text;html=1;points=[];align=left;verticalAlign=top;spacingTop=-4;fontSize=14;fontFamily=Verdana" vertex="1" parent="1">
          <mxGeometry x="60" y="355" width="170" height="20" as="geometry" />
        </mxCell>
        <mxCell id="cQQtmC6lyxQOHg3nt5vb-17" value="Auswahl" style="text;html=1;points=[];align=left;verticalAlign=top;spacingTop=-4;fontSize=14;fontFamily=Verdana" vertex="1" parent="1">
          <mxGeometry x="60" y="390" width="170" height="20" as="geometry" />
        </mxCell>
        <mxCell id="cQQtmC6lyxQOHg3nt5vb-18" value="" style="whiteSpace=wrap;html=1;rounded=0;shadow=0;labelBackgroundColor=none;strokeWidth=1;fillColor=none;fontFamily=Verdana;fontSize=12;align=center;comic=1;" vertex="1" parent="1">
          <mxGeometry x="30" y="470" width="20" height="20" as="geometry" />
        </mxCell>
        <mxCell id="cQQtmC6lyxQOHg3nt5vb-19" value="" style="whiteSpace=wrap;html=1;rounded=0;shadow=0;labelBackgroundColor=none;strokeWidth=1;fillColor=none;fontFamily=Verdana;fontSize=12;align=center;comic=1;" vertex="1" parent="1">
          <mxGeometry x="30" y="505" width="20" height="20" as="geometry" />
        </mxCell>
        <mxCell id="cQQtmC6lyxQOHg3nt5vb-20" value="" style="whiteSpace=wrap;html=1;rounded=0;shadow=0;labelBackgroundColor=none;strokeWidth=1;fillColor=none;fontFamily=Verdana;fontSize=12;align=center;comic=1;" vertex="1" parent="1">
          <mxGeometry x="30" y="575" width="20" height="20" as="geometry" />
        </mxCell>
        <mxCell id="cQQtmC6lyxQOHg3nt5vb-21" value="" style="whiteSpace=wrap;html=1;rounded=0;shadow=0;labelBackgroundColor=none;strokeWidth=1;fillColor=none;fontFamily=Verdana;fontSize=12;align=center;comic=1;" vertex="1" parent="1">
          <mxGeometry x="30" y="540" width="20" height="20" as="geometry" />
        </mxCell>
        <mxCell id="cQQtmC6lyxQOHg3nt5vb-22" value="Filter" style="text;html=1;points=[];align=left;verticalAlign=top;spacingTop=-4;fontSize=14;fontFamily=Verdana" vertex="1" parent="1">
          <mxGeometry x="30" y="440" width="170" height="20" as="geometry" />
        </mxCell>
        <mxCell id="cQQtmC6lyxQOHg3nt5vb-23" value="Auswahl" style="text;html=1;points=[];align=left;verticalAlign=top;spacingTop=-4;fontSize=14;fontFamily=Verdana" vertex="1" parent="1">
          <mxGeometry x="60" y="470" width="170" height="20" as="geometry" />
        </mxCell>
        <mxCell id="cQQtmC6lyxQOHg3nt5vb-24" value="Auswahl" style="text;html=1;points=[];align=left;verticalAlign=top;spacingTop=-4;fontSize=14;fontFamily=Verdana" vertex="1" parent="1">
          <mxGeometry x="60" y="505" width="170" height="20" as="geometry" />
        </mxCell>
        <mxCell id="cQQtmC6lyxQOHg3nt5vb-25" value="Auswahl" style="text;html=1;points=[];align=left;verticalAlign=top;spacingTop=-4;fontSize=14;fontFamily=Verdana" vertex="1" parent="1">
          <mxGeometry x="60" y="540" width="170" height="20" as="geometry" />
        </mxCell>
        <mxCell id="cQQtmC6lyxQOHg3nt5vb-26" value="Auswahl" style="text;html=1;points=[];align=left;verticalAlign=top;spacingTop=-4;fontSize=14;fontFamily=Verdana" vertex="1" parent="1">
          <mxGeometry x="60" y="575" width="170" height="20" as="geometry" />
        </mxCell>
        <mxCell id="cQQtmC6lyxQOHg3nt5vb-27" value="" style="whiteSpace=wrap;html=1;rounded=0;shadow=0;labelBackgroundColor=none;strokeWidth=1;fillColor=none;fontFamily=Verdana;fontSize=12;align=center;comic=1;" vertex="1" parent="1">
          <mxGeometry x="160" y="220" width="140" height="270" as="geometry" />
        </mxCell>
        <mxCell id="cQQtmC6lyxQOHg3nt5vb-28" value="&lt;div style=&quot;text-align: justify&quot;&gt;&lt;span&gt;Lorem ipsum dolor sit amet, consectetur adipisicing elit, sed do eiusmod tempor incididunt ut labore et dolore magna aliqua. Ut enim ad&amp;nbsp;&lt;/span&gt;&lt;/div&gt;" style="whiteSpace=wrap;html=1;rounded=0;shadow=0;labelBackgroundColor=none;strokeWidth=1;fillColor=none;fontFamily=Verdana;fontSize=12;align=center;verticalAlign=top;spacing=10;comic=1;strokeColor=none;" vertex="1" parent="1">
          <mxGeometry x="320" y="330" width="140" height="160" as="geometry" />
        </mxCell>
        <mxCell id="cQQtmC6lyxQOHg3nt5vb-29" value="" style="verticalLabelPosition=bottom;shadow=0;dashed=0;align=center;html=1;verticalAlign=top;strokeWidth=1;shape=mxgraph.mockup.graphics.simpleIcon;strokeColor=#999999;rounded=0;labelBackgroundColor=none;fontFamily=Verdana;fontSize=14;fontColor=#000000;comic=1;" vertex="1" parent="1">
          <mxGeometry x="330" y="230" width="120" height="100" as="geometry" />
        </mxCell>
        <mxCell id="cQQtmC6lyxQOHg3nt5vb-30" value="" style="whiteSpace=wrap;html=1;rounded=0;shadow=0;labelBackgroundColor=none;strokeWidth=1;fillColor=none;fontFamily=Verdana;fontSize=12;align=center;comic=1;" vertex="1" parent="1">
          <mxGeometry x="320" y="220" width="140" height="270" as="geometry" />
        </mxCell>
        <mxCell id="cQQtmC6lyxQOHg3nt5vb-31" value="&lt;div style=&quot;text-align: justify&quot;&gt;&lt;span&gt;Lorem ipsum dolor sit amet, consectetur adipisicing elit, sed do eiusmod tempor incididunt ut labore et dolore magna aliqua. Ut enim ad&amp;nbsp;&lt;/span&gt;&lt;/div&gt;" style="whiteSpace=wrap;html=1;rounded=0;shadow=0;labelBackgroundColor=none;strokeWidth=1;fillColor=none;fontFamily=Verdana;fontSize=12;align=center;verticalAlign=top;spacing=10;comic=1;strokeColor=none;" vertex="1" parent="1">
          <mxGeometry x="480" y="330" width="140" height="160" as="geometry" />
        </mxCell>
        <mxCell id="cQQtmC6lyxQOHg3nt5vb-32" value="" style="verticalLabelPosition=bottom;shadow=0;dashed=0;align=center;html=1;verticalAlign=top;strokeWidth=1;shape=mxgraph.mockup.graphics.simpleIcon;strokeColor=#999999;rounded=0;labelBackgroundColor=none;fontFamily=Verdana;fontSize=14;fontColor=#000000;comic=1;" vertex="1" parent="1">
          <mxGeometry x="490" y="230" width="120" height="100" as="geometry" />
        </mxCell>
        <mxCell id="cQQtmC6lyxQOHg3nt5vb-33" value="" style="whiteSpace=wrap;html=1;rounded=0;shadow=0;labelBackgroundColor=none;strokeWidth=1;fillColor=none;fontFamily=Verdana;fontSize=12;align=center;comic=1;" vertex="1" parent="1">
          <mxGeometry x="480" y="220" width="140" height="270" as="geometry" />
        </mxCell>
        <mxCell id="cQQtmC6lyxQOHg3nt5vb-34" value="&lt;div style=&quot;text-align: justify&quot;&gt;&lt;span&gt;Lorem ipsum dolor sit amet, consectetur adipisicing elit, sed do eiusmod tempor incididunt ut labore et dolore magna aliqua. Ut enim ad&amp;nbsp;&lt;/span&gt;&lt;/div&gt;" style="whiteSpace=wrap;html=1;rounded=0;shadow=0;labelBackgroundColor=none;strokeWidth=1;fillColor=none;fontFamily=Verdana;fontSize=12;align=center;verticalAlign=top;spacing=10;comic=1;strokeColor=none;" vertex="1" parent="1">
          <mxGeometry x="640" y="330" width="140" height="160" as="geometry" />
        </mxCell>
        <mxCell id="cQQtmC6lyxQOHg3nt5vb-35" value="" style="verticalLabelPosition=bottom;shadow=0;dashed=0;align=center;html=1;verticalAlign=top;strokeWidth=1;shape=mxgraph.mockup.graphics.simpleIcon;strokeColor=#999999;rounded=0;labelBackgroundColor=none;fontFamily=Verdana;fontSize=14;fontColor=#000000;comic=1;" vertex="1" parent="1">
          <mxGeometry x="650" y="230" width="120" height="100" as="geometry" />
        </mxCell>
        <mxCell id="cQQtmC6lyxQOHg3nt5vb-36" value="" style="whiteSpace=wrap;html=1;rounded=0;shadow=0;labelBackgroundColor=none;strokeWidth=1;fillColor=none;fontFamily=Verdana;fontSize=12;align=center;comic=1;" vertex="1" parent="1">
          <mxGeometry x="640" y="220" width="140" height="270" as="geometry" />
        </mxCell>
        <mxCell id="cQQtmC6lyxQOHg3nt5vb-37" value="&lt;div style=&quot;text-align: justify&quot;&gt;&lt;span&gt;Lorem ipsum dolor sit amet, consectetur adipisicing elit, sed do eiusmod tempor incididunt ut labore et dolore magna aliqua. Ut enim ad&amp;nbsp;&lt;/span&gt;&lt;/div&gt;" style="whiteSpace=wrap;html=1;rounded=0;shadow=0;labelBackgroundColor=none;strokeWidth=1;fillColor=none;fontFamily=Verdana;fontSize=12;align=center;verticalAlign=top;spacing=10;comic=1;strokeColor=none;" vertex="1" parent="1">
          <mxGeometry x="800" y="330" width="140" height="160" as="geometry" />
        </mxCell>
        <mxCell id="cQQtmC6lyxQOHg3nt5vb-38" value="" style="verticalLabelPosition=bottom;shadow=0;dashed=0;align=center;html=1;verticalAlign=top;strokeWidth=1;shape=mxgraph.mockup.graphics.simpleIcon;strokeColor=#999999;rounded=0;labelBackgroundColor=none;fontFamily=Verdana;fontSize=14;fontColor=#000000;comic=1;" vertex="1" parent="1">
          <mxGeometry x="810" y="230" width="120" height="100" as="geometry" />
        </mxCell>
        <mxCell id="cQQtmC6lyxQOHg3nt5vb-39" value="" style="whiteSpace=wrap;html=1;rounded=0;shadow=0;labelBackgroundColor=none;strokeWidth=1;fillColor=none;fontFamily=Verdana;fontSize=12;align=center;comic=1;" vertex="1" parent="1">
          <mxGeometry x="800" y="220" width="140" height="270" as="geometry" />
        </mxCell>
        <mxCell id="cQQtmC6lyxQOHg3nt5vb-40" value="&lt;div style=&quot;text-align: justify&quot;&gt;&lt;span&gt;Lorem ipsum dolor sit amet, consectetur adipisicing elit, sed do eiusmod tempor incididunt ut labore et dolore magna aliqua. Ut enim ad&amp;nbsp;&lt;/span&gt;&lt;/div&gt;" style="whiteSpace=wrap;html=1;rounded=0;shadow=0;labelBackgroundColor=none;strokeWidth=1;fillColor=none;fontFamily=Verdana;fontSize=12;align=center;verticalAlign=top;spacing=10;comic=1;strokeColor=none;" vertex="1" parent="1">
          <mxGeometry x="160" y="620" width="140" height="160" as="geometry" />
        </mxCell>
        <mxCell id="cQQtmC6lyxQOHg3nt5vb-41" value="" style="verticalLabelPosition=bottom;shadow=0;dashed=0;align=center;html=1;verticalAlign=top;strokeWidth=1;shape=mxgraph.mockup.graphics.simpleIcon;strokeColor=#999999;rounded=0;labelBackgroundColor=none;fontFamily=Verdana;fontSize=14;fontColor=#000000;comic=1;" vertex="1" parent="1">
          <mxGeometry x="170" y="520" width="120" height="100" as="geometry" />
        </mxCell>
        <mxCell id="cQQtmC6lyxQOHg3nt5vb-42" value="" style="whiteSpace=wrap;html=1;rounded=0;shadow=0;labelBackgroundColor=none;strokeWidth=1;fillColor=none;fontFamily=Verdana;fontSize=12;align=center;comic=1;" vertex="1" parent="1">
          <mxGeometry x="160" y="510" width="140" height="270" as="geometry" />
        </mxCell>
        <mxCell id="cQQtmC6lyxQOHg3nt5vb-43" value="&lt;div style=&quot;text-align: justify&quot;&gt;&lt;span&gt;Lorem ipsum dolor sit amet, consectetur adipisicing elit, sed do eiusmod tempor incididunt ut labore et dolore magna aliqua. Ut enim ad&amp;nbsp;&lt;/span&gt;&lt;/div&gt;" style="whiteSpace=wrap;html=1;rounded=0;shadow=0;labelBackgroundColor=none;strokeWidth=1;fillColor=none;fontFamily=Verdana;fontSize=12;align=center;verticalAlign=top;spacing=10;comic=1;strokeColor=none;" vertex="1" parent="1">
          <mxGeometry x="320" y="620" width="140" height="160" as="geometry" />
        </mxCell>
        <mxCell id="cQQtmC6lyxQOHg3nt5vb-44" value="" style="verticalLabelPosition=bottom;shadow=0;dashed=0;align=center;html=1;verticalAlign=top;strokeWidth=1;shape=mxgraph.mockup.graphics.simpleIcon;strokeColor=#999999;rounded=0;labelBackgroundColor=none;fontFamily=Verdana;fontSize=14;fontColor=#000000;comic=1;" vertex="1" parent="1">
          <mxGeometry x="330" y="520" width="120" height="100" as="geometry" />
        </mxCell>
        <mxCell id="cQQtmC6lyxQOHg3nt5vb-45" value="" style="whiteSpace=wrap;html=1;rounded=0;shadow=0;labelBackgroundColor=none;strokeWidth=1;fillColor=none;fontFamily=Verdana;fontSize=12;align=center;comic=1;" vertex="1" parent="1">
          <mxGeometry x="320" y="510" width="140" height="270" as="geometry" />
        </mxCell>
        <mxCell id="cQQtmC6lyxQOHg3nt5vb-46" value="&lt;div style=&quot;text-align: justify&quot;&gt;&lt;span&gt;Lorem ipsum dolor sit amet, consectetur adipisicing elit, sed do eiusmod tempor incididunt ut labore et dolore magna aliqua. Ut enim ad&amp;nbsp;&lt;/span&gt;&lt;/div&gt;" style="whiteSpace=wrap;html=1;rounded=0;shadow=0;labelBackgroundColor=none;strokeWidth=1;fillColor=none;fontFamily=Verdana;fontSize=12;align=center;verticalAlign=top;spacing=10;comic=1;strokeColor=none;" vertex="1" parent="1">
          <mxGeometry x="480" y="620" width="140" height="160" as="geometry" />
        </mxCell>
        <mxCell id="cQQtmC6lyxQOHg3nt5vb-47" value="" style="verticalLabelPosition=bottom;shadow=0;dashed=0;align=center;html=1;verticalAlign=top;strokeWidth=1;shape=mxgraph.mockup.graphics.simpleIcon;strokeColor=#999999;rounded=0;labelBackgroundColor=none;fontFamily=Verdana;fontSize=14;fontColor=#000000;comic=1;" vertex="1" parent="1">
          <mxGeometry x="490" y="520" width="120" height="100" as="geometry" />
        </mxCell>
        <mxCell id="cQQtmC6lyxQOHg3nt5vb-48" value="" style="whiteSpace=wrap;html=1;rounded=0;shadow=0;labelBackgroundColor=none;strokeWidth=1;fillColor=none;fontFamily=Verdana;fontSize=12;align=center;comic=1;" vertex="1" parent="1">
          <mxGeometry x="480" y="510" width="140" height="270" as="geometry" />
        </mxCell>
        <mxCell id="cQQtmC6lyxQOHg3nt5vb-49" value="&lt;div style=&quot;text-align: justify&quot;&gt;&lt;span&gt;Lorem ipsum dolor sit amet, consectetur adipisicing elit, sed do eiusmod tempor incididunt ut labore et dolore magna aliqua. Ut enim ad&amp;nbsp;&lt;/span&gt;&lt;/div&gt;" style="whiteSpace=wrap;html=1;rounded=0;shadow=0;labelBackgroundColor=none;strokeWidth=1;fillColor=none;fontFamily=Verdana;fontSize=12;align=center;verticalAlign=top;spacing=10;comic=1;strokeColor=none;" vertex="1" parent="1">
          <mxGeometry x="640" y="620" width="140" height="160" as="geometry" />
        </mxCell>
        <mxCell id="cQQtmC6lyxQOHg3nt5vb-50" value="" style="verticalLabelPosition=bottom;shadow=0;dashed=0;align=center;html=1;verticalAlign=top;strokeWidth=1;shape=mxgraph.mockup.graphics.simpleIcon;strokeColor=#999999;rounded=0;labelBackgroundColor=none;fontFamily=Verdana;fontSize=14;fontColor=#000000;comic=1;" vertex="1" parent="1">
          <mxGeometry x="650" y="520" width="120" height="100" as="geometry" />
        </mxCell>
        <mxCell id="cQQtmC6lyxQOHg3nt5vb-51" value="" style="whiteSpace=wrap;html=1;rounded=0;shadow=0;labelBackgroundColor=none;strokeWidth=1;fillColor=none;fontFamily=Verdana;fontSize=12;align=center;comic=1;" vertex="1" parent="1">
          <mxGeometry x="640" y="510" width="140" height="270" as="geometry" />
        </mxCell>
        <mxCell id="cQQtmC6lyxQOHg3nt5vb-52" value="&lt;div style=&quot;text-align: justify&quot;&gt;&lt;span&gt;Lorem ipsum dolor sit amet, consectetur adipisicing elit, sed do eiusmod tempor incididunt ut labore et dolore magna aliqua. Ut enim ad&amp;nbsp;&lt;/span&gt;&lt;/div&gt;" style="whiteSpace=wrap;html=1;rounded=0;shadow=0;labelBackgroundColor=none;strokeWidth=1;fillColor=none;fontFamily=Verdana;fontSize=12;align=center;verticalAlign=top;spacing=10;comic=1;strokeColor=none;" vertex="1" parent="1">
          <mxGeometry x="800" y="620" width="140" height="160" as="geometry" />
        </mxCell>
        <mxCell id="cQQtmC6lyxQOHg3nt5vb-53" value="" style="verticalLabelPosition=bottom;shadow=0;dashed=0;align=center;html=1;verticalAlign=top;strokeWidth=1;shape=mxgraph.mockup.graphics.simpleIcon;strokeColor=#999999;rounded=0;labelBackgroundColor=none;fontFamily=Verdana;fontSize=14;fontColor=#000000;comic=1;" vertex="1" parent="1">
          <mxGeometry x="810" y="520" width="120" height="100" as="geometry" />
        </mxCell>
        <mxCell id="cQQtmC6lyxQOHg3nt5vb-54" value="" style="whiteSpace=wrap;html=1;rounded=0;shadow=0;labelBackgroundColor=none;strokeWidth=1;fillColor=none;fontFamily=Verdana;fontSize=12;align=center;comic=1;" vertex="1" parent="1">
          <mxGeometry x="800" y="510" width="140" height="270" as="geometry" />
        </mxCell>
        <mxCell id="cQQtmC6lyxQOHg3nt5vb-56" value="" style="whiteSpace=wrap;html=1;rounded=0;shadow=0;labelBackgroundColor=none;strokeWidth=1;fillColor=none;fontFamily=Verdana;fontSize=12;align=center;comic=1;" vertex="1" parent="1">
          <mxGeometry x="980" y="80" width="70" height="730" as="geometry" />
        </mxCell>
        <mxCell id="cQQtmC6lyxQOHg3nt5vb-57" value="" style="verticalLabelPosition=bottom;shadow=0;dashed=0;align=center;html=1;verticalAlign=top;strokeWidth=1;shape=mxgraph.mockup.graphics.simpleIcon;strokeColor=#999999;rounded=0;labelBackgroundColor=none;fontFamily=Verdana;fontSize=14;fontColor=#000000;comic=1;" vertex="1" parent="1">
          <mxGeometry x="995" y="180" width="35" height="50" as="geometry" />
        </mxCell>
        <mxCell id="cQQtmC6lyxQOHg3nt5vb-59" value="" style="verticalLabelPosition=bottom;shadow=0;dashed=0;align=center;html=1;verticalAlign=top;strokeWidth=1;shape=mxgraph.mockup.graphics.simpleIcon;strokeColor=#999999;rounded=0;labelBackgroundColor=none;fontFamily=Verdana;fontSize=14;fontColor=#000000;comic=1;" vertex="1" parent="1">
          <mxGeometry x="995" y="255" width="35" height="50" as="geometry" />
        </mxCell>
        <mxCell id="cQQtmC6lyxQOHg3nt5vb-61" value="Waren-&lt;br&gt;korb" style="text;html=1;points=[];align=left;verticalAlign=top;spacingTop=-4;fontSize=14;fontFamily=Verdana" vertex="1" parent="1">
          <mxGeometry x="990" y="110" width="60" height="20" as="geometry" />
        </mxCell>
        <mxCell id="cQQtmC6lyxQOHg3nt5vb-64" value="LOGO" style="whiteSpace=wrap;html=1;rounded=0;shadow=0;labelBackgroundColor=none;strokeWidth=1;fontFamily=Verdana;fontSize=28;align=center;comic=1;" vertex="1" parent="1">
          <mxGeometry x="30" y="900" width="190" height="50" as="geometry" />
        </mxCell>
        <mxCell id="cQQtmC6lyxQOHg3nt5vb-65" value="Search" style="strokeWidth=1;shadow=0;dashed=0;align=center;html=1;shape=mxgraph.mockup.forms.searchBox;strokeColor=#999999;mainText=;strokeColor2=#008cff;fontColor=#666666;fontSize=17;align=left;spacingLeft=3;rounded=0;labelBackgroundColor=none;comic=1;" vertex="1" parent="1">
          <mxGeometry x="317" y="910" width="413" height="30" as="geometry" />
        </mxCell>
        <mxCell id="cQQtmC6lyxQOHg3nt5vb-66" value="Kategorie" style="text;html=1;points=[];align=left;verticalAlign=top;spacingTop=-4;fontSize=14;fontFamily=Verdana" vertex="1" parent="1">
          <mxGeometry x="40" y="990" width="60" height="20" as="geometry" />
        </mxCell>
        <mxCell id="cQQtmC6lyxQOHg3nt5vb-67" value="Kategorie" style="text;html=1;points=[];align=left;verticalAlign=top;spacingTop=-4;fontSize=14;fontFamily=Verdana" vertex="1" parent="1">
          <mxGeometry x="220" y="990" width="60" height="20" as="geometry" />
        </mxCell>
        <mxCell id="cQQtmC6lyxQOHg3nt5vb-68" value="Kategorie" style="text;html=1;points=[];align=left;verticalAlign=top;spacingTop=-4;fontSize=14;fontFamily=Verdana" vertex="1" parent="1">
          <mxGeometry x="300" y="990" width="60" height="20" as="geometry" />
        </mxCell>
        <mxCell id="cQQtmC6lyxQOHg3nt5vb-69" value="Kategorie" style="text;html=1;points=[];align=left;verticalAlign=top;spacingTop=-4;fontSize=14;fontFamily=Verdana" vertex="1" parent="1">
          <mxGeometry x="390" y="990" width="60" height="20" as="geometry" />
        </mxCell>
        <mxCell id="cQQtmC6lyxQOHg3nt5vb-70" value="Kategorie" style="text;html=1;points=[];align=left;verticalAlign=top;spacingTop=-4;fontSize=14;fontFamily=Verdana" vertex="1" parent="1">
          <mxGeometry x="490" y="990" width="60" height="20" as="geometry" />
        </mxCell>
        <mxCell id="cQQtmC6lyxQOHg3nt5vb-71" value="Kategorie" style="text;html=1;points=[];align=left;verticalAlign=top;spacingTop=-4;fontSize=14;fontFamily=Verdana" vertex="1" parent="1">
          <mxGeometry x="580" y="990" width="60" height="20" as="geometry" />
        </mxCell>
        <mxCell id="cQQtmC6lyxQOHg3nt5vb-72" value="Kategorie" style="text;html=1;points=[];align=left;verticalAlign=top;spacingTop=-4;fontSize=14;fontFamily=Verdana" vertex="1" parent="1">
          <mxGeometry x="670" y="990" width="60" height="20" as="geometry" />
        </mxCell>
        <mxCell id="cQQtmC6lyxQOHg3nt5vb-73" value="Kategorie" style="text;html=1;points=[];align=left;verticalAlign=top;spacingTop=-4;fontSize=14;fontFamily=Verdana" vertex="1" parent="1">
          <mxGeometry x="760" y="990" width="60" height="20" as="geometry" />
        </mxCell>
        <mxCell id="cQQtmC6lyxQOHg3nt5vb-74" value="Kategorie" style="text;html=1;points=[];align=left;verticalAlign=top;spacingTop=-4;fontSize=14;fontFamily=Verdana" vertex="1" parent="1">
          <mxGeometry x="860" y="990" width="60" height="20" as="geometry" />
        </mxCell>
        <mxCell id="cQQtmC6lyxQOHg3nt5vb-75" value="Kategorie" style="text;html=1;points=[];align=left;verticalAlign=top;spacingTop=-4;fontSize=14;fontFamily=Verdana" vertex="1" parent="1">
          <mxGeometry x="130" y="990" width="60" height="20" as="geometry" />
        </mxCell>
        <mxCell id="cQQtmC6lyxQOHg3nt5vb-76" value="Warenkorb" style="text;html=1;points=[];align=left;verticalAlign=top;spacingTop=-4;fontSize=14;fontFamily=Verdana" vertex="1" parent="1">
          <mxGeometry x="930" y="915" width="120" height="20" as="geometry" />
        </mxCell>
        <mxCell id="cQQtmC6lyxQOHg3nt5vb-77" value="" style="line;strokeWidth=1;html=1;rounded=0;shadow=0;labelBackgroundColor=none;fillColor=none;fontFamily=Verdana;fontSize=14;fontColor=#000000;align=center;comic=1;" vertex="1" parent="1">
          <mxGeometry x="20" y="980" width="1040" height="10" as="geometry" />
        </mxCell>
        <mxCell id="cQQtmC6lyxQOHg3nt5vb-79" value="Kategorie" style="text;html=1;points=[];align=left;verticalAlign=top;spacingTop=-4;fontSize=14;fontFamily=Verdana" vertex="1" parent="1">
          <mxGeometry x="950" y="990" width="60" height="20" as="geometry" />
        </mxCell>
        <mxCell id="cQQtmC6lyxQOHg3nt5vb-80" value="" style="whiteSpace=wrap;html=1;rounded=0;shadow=0;labelBackgroundColor=none;strokeWidth=1;fillColor=none;fontFamily=Verdana;fontSize=12;align=center;comic=1;" vertex="1" parent="1">
          <mxGeometry x="270" y="1040" width="540" height="60" as="geometry" />
        </mxCell>
        <mxCell id="cQQtmC6lyxQOHg3nt5vb-81" value="" style="verticalLabelPosition=bottom;shadow=0;dashed=0;align=center;html=1;verticalAlign=top;strokeWidth=1;shape=mxgraph.mockup.graphics.simpleIcon;strokeColor=#999999;rounded=0;labelBackgroundColor=none;fontFamily=Verdana;fontSize=14;fontColor=#000000;comic=1;" vertex="1" parent="1">
          <mxGeometry x="290" y="1055" width="30" height="30" as="geometry" />
        </mxCell>
        <mxCell id="cQQtmC6lyxQOHg3nt5vb-82" value="Button" style="whiteSpace=wrap;html=1;rounded=0;shadow=0;labelBackgroundColor=none;strokeWidth=1;fillColor=none;fontFamily=Verdana;fontSize=12;align=center;comic=1;" vertex="1" parent="1">
          <mxGeometry x="720" y="1055" width="70" height="30" as="geometry" />
        </mxCell>
        <mxCell id="cQQtmC6lyxQOHg3nt5vb-86" value="&lt;span style=&quot;font-family: Verdana; font-size: 12px; font-style: normal; font-variant-ligatures: normal; font-variant-caps: normal; font-weight: 400; letter-spacing: normal; orphans: 2; text-align: justify; text-indent: 0px; text-transform: none; widows: 2; word-spacing: 0px; -webkit-text-stroke-width: 0px; text-decoration-thickness: initial; text-decoration-style: initial; text-decoration-color: initial; float: none; display: inline !important;&quot;&gt;&lt;font style=&quot;&quot; color=&quot;#000000&quot;&gt;Lorem ipsum dolor sit amet, consectetur adipisicing elit, sed do eiusmod tempor incididunt ut labo&lt;/font&gt;&lt;/span&gt;" style="text;whiteSpace=wrap;html=1;" vertex="1" parent="1">
          <mxGeometry x="350" y="1045" width="320" height="50" as="geometry" />
        </mxCell>
        <mxCell id="cQQtmC6lyxQOHg3nt5vb-87" value="" style="whiteSpace=wrap;html=1;rounded=0;shadow=0;labelBackgroundColor=none;strokeWidth=1;fillColor=none;fontFamily=Verdana;fontSize=12;align=center;comic=1;" vertex="1" parent="1">
          <mxGeometry x="100" y="1140" width="670" height="470" as="geometry" />
        </mxCell>
        <mxCell id="cQQtmC6lyxQOHg3nt5vb-88" value="" style="whiteSpace=wrap;html=1;rounded=0;shadow=0;labelBackgroundColor=none;strokeWidth=1;fillColor=none;fontFamily=Verdana;fontSize=12;align=center;comic=1;" vertex="1" parent="1">
          <mxGeometry x="800" y="1140" width="170" height="130" as="geometry" />
        </mxCell>
        <mxCell id="cQQtmC6lyxQOHg3nt5vb-89" value="Button" style="whiteSpace=wrap;html=1;rounded=0;shadow=0;labelBackgroundColor=none;strokeWidth=1;fillColor=none;fontFamily=Verdana;fontSize=12;align=center;comic=1;" vertex="1" parent="1">
          <mxGeometry x="830" y="1230" width="120" height="30" as="geometry" />
        </mxCell>
        <mxCell id="cQQtmC6lyxQOHg3nt5vb-90" value="&lt;span style=&quot;font-family: Verdana; font-size: 12px; font-style: normal; font-variant-ligatures: normal; font-variant-caps: normal; font-weight: 400; letter-spacing: normal; orphans: 2; text-align: justify; text-indent: 0px; text-transform: none; widows: 2; word-spacing: 0px; -webkit-text-stroke-width: 0px; text-decoration-thickness: initial; text-decoration-style: initial; text-decoration-color: initial; float: none; display: inline !important;&quot;&gt;&lt;font color=&quot;#000000&quot;&gt;Lorem ipsum dolor sit amet, consectetur adipisicing elit,&lt;/font&gt;&lt;/span&gt;" style="text;whiteSpace=wrap;html=1;" vertex="1" parent="1">
          <mxGeometry x="810" y="1150" width="150" height="50" as="geometry" />
        </mxCell>
        <mxCell id="cQQtmC6lyxQOHg3nt5vb-91" value="Einkaufswagen" style="text;html=1;points=[];align=left;verticalAlign=top;spacingTop=-4;fontSize=14;fontFamily=Verdana" vertex="1" parent="1">
          <mxGeometry x="110" y="1150" width="160" height="20" as="geometry" />
        </mxCell>
        <mxCell id="cQQtmC6lyxQOHg3nt5vb-92" value="" style="line;strokeWidth=1;html=1;rounded=0;shadow=0;labelBackgroundColor=none;fillColor=none;fontFamily=Verdana;fontSize=14;fontColor=#000000;align=center;comic=1;" vertex="1" parent="1">
          <mxGeometry x="120" y="1190" width="630" height="10" as="geometry" />
        </mxCell>
        <mxCell id="cQQtmC6lyxQOHg3nt5vb-94" value="" style="line;strokeWidth=1;html=1;rounded=0;shadow=0;labelBackgroundColor=none;fillColor=none;fontFamily=Verdana;fontSize=14;fontColor=#000000;align=center;comic=1;" vertex="1" parent="1">
          <mxGeometry x="110" y="1370" width="630" height="10" as="geometry" />
        </mxCell>
        <mxCell id="cQQtmC6lyxQOHg3nt5vb-95" value="" style="line;strokeWidth=1;html=1;rounded=0;shadow=0;labelBackgroundColor=none;fillColor=none;fontFamily=Verdana;fontSize=14;fontColor=#000000;align=center;comic=1;" vertex="1" parent="1">
          <mxGeometry x="120" y="1550" width="630" height="10" as="geometry" />
        </mxCell>
        <mxCell id="cQQtmC6lyxQOHg3nt5vb-96" value="" style="verticalLabelPosition=bottom;shadow=0;dashed=0;align=center;html=1;verticalAlign=top;strokeWidth=1;shape=mxgraph.mockup.graphics.simpleIcon;strokeColor=#999999;rounded=0;labelBackgroundColor=none;fontFamily=Verdana;fontSize=14;fontColor=#000000;comic=1;" vertex="1" parent="1">
          <mxGeometry x="130" y="1210" width="180" height="150" as="geometry" />
        </mxCell>
        <mxCell id="cQQtmC6lyxQOHg3nt5vb-97" value="" style="verticalLabelPosition=bottom;shadow=0;dashed=0;align=center;html=1;verticalAlign=top;strokeWidth=1;shape=mxgraph.mockup.graphics.simpleIcon;strokeColor=#999999;rounded=0;labelBackgroundColor=none;fontFamily=Verdana;fontSize=14;fontColor=#000000;comic=1;" vertex="1" parent="1">
          <mxGeometry x="130" y="1390" width="180" height="150" as="geometry" />
        </mxCell>
        <mxCell id="cQQtmC6lyxQOHg3nt5vb-98" value="&lt;span style=&quot;font-family: Verdana; font-size: 12px; font-style: normal; font-variant-ligatures: normal; font-variant-caps: normal; font-weight: 400; letter-spacing: normal; orphans: 2; text-align: justify; text-indent: 0px; text-transform: none; widows: 2; word-spacing: 0px; -webkit-text-stroke-width: 0px; text-decoration-thickness: initial; text-decoration-style: initial; text-decoration-color: initial; float: none; display: inline !important;&quot;&gt;&lt;font color=&quot;#000000&quot;&gt;incididunt ut laboLorem ipsum dolor sit amet, consectetur adipisicing elit, sed do eiusmod tempor incididunt ut labo&lt;br&gt;&lt;br&gt;incididunt ut labo&lt;br&gt;&lt;br&gt;incididunt ut labo&lt;br&gt;incididunt ut labo&lt;/font&gt;&lt;br&gt;&lt;/span&gt;" style="text;whiteSpace=wrap;html=1;" vertex="1" parent="1">
          <mxGeometry x="330" y="1210" width="330" height="140" as="geometry" />
        </mxCell>
        <mxCell id="cQQtmC6lyxQOHg3nt5vb-100" value="&lt;span style=&quot;font-family: Verdana; font-size: 12px; font-style: normal; font-variant-ligatures: normal; font-variant-caps: normal; font-weight: 400; letter-spacing: normal; orphans: 2; text-align: justify; text-indent: 0px; text-transform: none; widows: 2; word-spacing: 0px; -webkit-text-stroke-width: 0px; text-decoration-thickness: initial; text-decoration-style: initial; text-decoration-color: initial; float: none; display: inline !important;&quot;&gt;&lt;font color=&quot;#000000&quot;&gt;incididunt ut laboLorem ipsum dolor sit amet, consectetur adipisicing elit, sed do eiusmod tempor incididunt ut labo&lt;br&gt;&lt;br&gt;incididunt ut labo&lt;br&gt;&lt;br&gt;incididunt ut labo&lt;br&gt;incididunt ut labo&lt;/font&gt;&lt;br&gt;&lt;/span&gt;" style="text;whiteSpace=wrap;html=1;" vertex="1" parent="1">
          <mxGeometry x="330" y="1390" width="330" height="140" as="geometry" />
        </mxCell>
        <mxCell id="cQQtmC6lyxQOHg3nt5vb-101" value="LOGO" style="whiteSpace=wrap;html=1;rounded=0;shadow=0;labelBackgroundColor=none;strokeWidth=1;fontFamily=Verdana;fontSize=28;align=center;comic=1;" vertex="1" parent="1">
          <mxGeometry x="40" y="1740" width="190" height="50" as="geometry" />
        </mxCell>
        <mxCell id="cQQtmC6lyxQOHg3nt5vb-102" value="Search" style="strokeWidth=1;shadow=0;dashed=0;align=center;html=1;shape=mxgraph.mockup.forms.searchBox;strokeColor=#999999;mainText=;strokeColor2=#008cff;fontColor=#666666;fontSize=17;align=left;spacingLeft=3;rounded=0;labelBackgroundColor=none;comic=1;" vertex="1" parent="1">
          <mxGeometry x="327" y="1750" width="413" height="30" as="geometry" />
        </mxCell>
        <mxCell id="cQQtmC6lyxQOHg3nt5vb-103" value="Kategorie" style="text;html=1;points=[];align=left;verticalAlign=top;spacingTop=-4;fontSize=14;fontFamily=Verdana" vertex="1" parent="1">
          <mxGeometry x="50" y="1830" width="60" height="20" as="geometry" />
        </mxCell>
        <mxCell id="cQQtmC6lyxQOHg3nt5vb-104" value="Kategorie" style="text;html=1;points=[];align=left;verticalAlign=top;spacingTop=-4;fontSize=14;fontFamily=Verdana" vertex="1" parent="1">
          <mxGeometry x="230" y="1830" width="60" height="20" as="geometry" />
        </mxCell>
        <mxCell id="cQQtmC6lyxQOHg3nt5vb-105" value="Kategorie" style="text;html=1;points=[];align=left;verticalAlign=top;spacingTop=-4;fontSize=14;fontFamily=Verdana" vertex="1" parent="1">
          <mxGeometry x="310" y="1830" width="60" height="20" as="geometry" />
        </mxCell>
        <mxCell id="cQQtmC6lyxQOHg3nt5vb-106" value="Kategorie" style="text;html=1;points=[];align=left;verticalAlign=top;spacingTop=-4;fontSize=14;fontFamily=Verdana" vertex="1" parent="1">
          <mxGeometry x="400" y="1830" width="60" height="20" as="geometry" />
        </mxCell>
        <mxCell id="cQQtmC6lyxQOHg3nt5vb-107" value="Kategorie" style="text;html=1;points=[];align=left;verticalAlign=top;spacingTop=-4;fontSize=14;fontFamily=Verdana" vertex="1" parent="1">
          <mxGeometry x="500" y="1830" width="60" height="20" as="geometry" />
        </mxCell>
        <mxCell id="cQQtmC6lyxQOHg3nt5vb-108" value="Kategorie" style="text;html=1;points=[];align=left;verticalAlign=top;spacingTop=-4;fontSize=14;fontFamily=Verdana" vertex="1" parent="1">
          <mxGeometry x="590" y="1830" width="60" height="20" as="geometry" />
        </mxCell>
        <mxCell id="cQQtmC6lyxQOHg3nt5vb-109" value="Kategorie" style="text;html=1;points=[];align=left;verticalAlign=top;spacingTop=-4;fontSize=14;fontFamily=Verdana" vertex="1" parent="1">
          <mxGeometry x="680" y="1830" width="60" height="20" as="geometry" />
        </mxCell>
        <mxCell id="cQQtmC6lyxQOHg3nt5vb-110" value="Kategorie" style="text;html=1;points=[];align=left;verticalAlign=top;spacingTop=-4;fontSize=14;fontFamily=Verdana" vertex="1" parent="1">
          <mxGeometry x="770" y="1830" width="60" height="20" as="geometry" />
        </mxCell>
        <mxCell id="cQQtmC6lyxQOHg3nt5vb-111" value="Kategorie" style="text;html=1;points=[];align=left;verticalAlign=top;spacingTop=-4;fontSize=14;fontFamily=Verdana" vertex="1" parent="1">
          <mxGeometry x="870" y="1830" width="60" height="20" as="geometry" />
        </mxCell>
        <mxCell id="cQQtmC6lyxQOHg3nt5vb-112" value="Kategorie" style="text;html=1;points=[];align=left;verticalAlign=top;spacingTop=-4;fontSize=14;fontFamily=Verdana" vertex="1" parent="1">
          <mxGeometry x="140" y="1830" width="60" height="20" as="geometry" />
        </mxCell>
        <mxCell id="cQQtmC6lyxQOHg3nt5vb-113" value="Warenkorb" style="text;html=1;points=[];align=left;verticalAlign=top;spacingTop=-4;fontSize=14;fontFamily=Verdana" vertex="1" parent="1">
          <mxGeometry x="940" y="1755" width="120" height="20" as="geometry" />
        </mxCell>
        <mxCell id="cQQtmC6lyxQOHg3nt5vb-114" value="" style="line;strokeWidth=1;html=1;rounded=0;shadow=0;labelBackgroundColor=none;fillColor=none;fontFamily=Verdana;fontSize=14;fontColor=#000000;align=center;comic=1;" vertex="1" parent="1">
          <mxGeometry x="445" y="2230" width="350" height="10" as="geometry" />
        </mxCell>
        <mxCell id="cQQtmC6lyxQOHg3nt5vb-115" value="Kategorie" style="text;html=1;points=[];align=left;verticalAlign=top;spacingTop=-4;fontSize=14;fontFamily=Verdana" vertex="1" parent="1">
          <mxGeometry x="960" y="1830" width="60" height="20" as="geometry" />
        </mxCell>
        <mxCell id="cQQtmC6lyxQOHg3nt5vb-116" value="" style="whiteSpace=wrap;html=1;rounded=0;shadow=0;labelBackgroundColor=none;strokeWidth=1;fillColor=none;fontFamily=Verdana;fontSize=12;align=center;comic=1;" vertex="1" parent="1">
          <mxGeometry x="820" y="1920" width="205" height="460" as="geometry" />
        </mxCell>
        <mxCell id="cQQtmC6lyxQOHg3nt5vb-117" value="" style="verticalLabelPosition=bottom;shadow=0;dashed=0;align=center;html=1;verticalAlign=top;strokeWidth=1;shape=mxgraph.mockup.graphics.simpleIcon;strokeColor=#999999;rounded=0;labelBackgroundColor=none;fontFamily=Verdana;fontSize=14;fontColor=#000000;comic=1;" vertex="1" parent="1">
          <mxGeometry x="100" y="1930" width="310" height="300" as="geometry" />
        </mxCell>
        <mxCell id="cQQtmC6lyxQOHg3nt5vb-118" value="" style="verticalLabelPosition=bottom;shadow=0;dashed=0;align=center;html=1;verticalAlign=top;strokeWidth=1;shape=mxgraph.mockup.graphics.simpleIcon;strokeColor=#999999;rounded=0;labelBackgroundColor=none;fontFamily=Verdana;fontSize=14;fontColor=#000000;comic=1;" vertex="1" parent="1">
          <mxGeometry x="50" y="1930" width="30" height="50" as="geometry" />
        </mxCell>
        <mxCell id="cQQtmC6lyxQOHg3nt5vb-119" value="" style="verticalLabelPosition=bottom;shadow=0;dashed=0;align=center;html=1;verticalAlign=top;strokeWidth=1;shape=mxgraph.mockup.graphics.simpleIcon;strokeColor=#999999;rounded=0;labelBackgroundColor=none;fontFamily=Verdana;fontSize=14;fontColor=#000000;comic=1;" vertex="1" parent="1">
          <mxGeometry x="50" y="1990" width="30" height="50" as="geometry" />
        </mxCell>
        <mxCell id="cQQtmC6lyxQOHg3nt5vb-120" value="" style="verticalLabelPosition=bottom;shadow=0;dashed=0;align=center;html=1;verticalAlign=top;strokeWidth=1;shape=mxgraph.mockup.graphics.simpleIcon;strokeColor=#999999;rounded=0;labelBackgroundColor=none;fontFamily=Verdana;fontSize=14;fontColor=#000000;comic=1;" vertex="1" parent="1">
          <mxGeometry x="50" y="2050" width="30" height="50" as="geometry" />
        </mxCell>
        <mxCell id="cQQtmC6lyxQOHg3nt5vb-121" value="&lt;span style=&quot;font-family: Verdana; font-size: 12px; font-style: normal; font-variant-ligatures: normal; font-variant-caps: normal; font-weight: 400; letter-spacing: normal; orphans: 2; text-align: justify; text-indent: 0px; text-transform: none; widows: 2; word-spacing: 0px; -webkit-text-stroke-width: 0px; text-decoration-thickness: initial; text-decoration-style: initial; text-decoration-color: initial; float: none; display: inline !important;&quot;&gt;&lt;font color=&quot;#000000&quot;&gt;incididunt ut laboLorem ipsum dolor sit amet, consectetur adipisicing elit, sed do eiusmod tempor incididunt ut labo&lt;br&gt;&lt;br&gt;incididunt ut labo&lt;br&gt;&lt;br&gt;incididunt ut labo&lt;br&gt;incididunt ut labo&lt;br&gt;&lt;br&gt;incididunt ut laboLorem ipsum dolor sit amet, consectetur adipisicing elit, sed do eiusmod tempor incididunt ut labo&lt;br&gt;&lt;br&gt;incididunt ut labo&lt;br&gt;&lt;br&gt;incididunt ut labo&lt;br&gt;incididunt ut labo&lt;/font&gt;&lt;br&gt;&lt;/span&gt;" style="text;whiteSpace=wrap;html=1;" vertex="1" parent="1">
          <mxGeometry x="440" y="1930" width="320" height="290" as="geometry" />
        </mxCell>
        <mxCell id="cQQtmC6lyxQOHg3nt5vb-122" value="Button" style="whiteSpace=wrap;html=1;rounded=0;shadow=0;labelBackgroundColor=none;strokeWidth=1;fillColor=none;fontFamily=Verdana;fontSize=12;align=center;comic=1;" vertex="1" parent="1">
          <mxGeometry x="840" y="2090" width="170" height="30" as="geometry" />
        </mxCell>
        <mxCell id="cQQtmC6lyxQOHg3nt5vb-124" value="Button" style="whiteSpace=wrap;html=1;rounded=0;shadow=0;labelBackgroundColor=none;strokeWidth=1;fillColor=none;fontFamily=Verdana;fontSize=12;align=center;comic=1;" vertex="1" parent="1">
          <mxGeometry x="840" y="2140" width="170" height="30" as="geometry" />
        </mxCell>
        <mxCell id="cQQtmC6lyxQOHg3nt5vb-127" value="&lt;span style=&quot;font-family: Verdana; font-size: 12px; font-style: normal; font-variant-ligatures: normal; font-variant-caps: normal; font-weight: 400; letter-spacing: normal; orphans: 2; text-align: justify; text-indent: 0px; text-transform: none; widows: 2; word-spacing: 0px; -webkit-text-stroke-width: 0px; text-decoration-thickness: initial; text-decoration-style: initial; text-decoration-color: initial; float: none; display: inline !important;&quot;&gt;&lt;font color=&quot;#000000&quot;&gt;incididunt ut laboLorem ipsum dolor sit amet, consectetur adipisicing elit, sed do eiusmod tempor incididunt ut labo&lt;br&gt;&lt;br&gt;incididunt ut labo&lt;br&gt;&lt;/font&gt;&lt;br&gt;&lt;/span&gt;" style="text;whiteSpace=wrap;html=1;" vertex="1" parent="1">
          <mxGeometry x="840" y="1940" width="165" height="140" as="geometry" />
        </mxCell>
        <mxCell id="cQQtmC6lyxQOHg3nt5vb-128" value="&lt;span style=&quot;font-family: Verdana; font-size: 12px; font-style: normal; font-variant-ligatures: normal; font-variant-caps: normal; font-weight: 400; letter-spacing: normal; orphans: 2; text-align: justify; text-indent: 0px; text-transform: none; widows: 2; word-spacing: 0px; -webkit-text-stroke-width: 0px; text-decoration-thickness: initial; text-decoration-style: initial; text-decoration-color: initial; float: none; display: inline !important;&quot;&gt;&lt;font style=&quot;&quot; color=&quot;#000000&quot;&gt;incididunt ut laboLorem ipsum dolor sit amet, consectetur adipisicing elit, sed do eiusmod tempor incididunt ut labo&lt;br&gt;&lt;br&gt;incididunt ut labo&lt;br&gt;&lt;/font&gt;&lt;br&gt;&lt;/span&gt;" style="text;whiteSpace=wrap;html=1;" vertex="1" parent="1">
          <mxGeometry x="842.5" y="2190" width="165" height="140" as="geometry" />
        </mxCell>
        <mxCell id="cQQtmC6lyxQOHg3nt5vb-129" value="Button" style="whiteSpace=wrap;html=1;rounded=0;shadow=0;labelBackgroundColor=none;strokeWidth=1;fillColor=none;fontFamily=Verdana;fontSize=12;align=center;comic=1;" vertex="1" parent="1">
          <mxGeometry x="837.5" y="2330" width="170" height="30" as="geometry" />
        </mxCell>
        <mxCell id="cQQtmC6lyxQOHg3nt5vb-130" value="" style="whiteSpace=wrap;html=1;rounded=0;shadow=0;labelBackgroundColor=none;strokeWidth=1;fillColor=none;fontFamily=Verdana;fontSize=12;align=center;comic=1;" vertex="1" parent="1">
          <mxGeometry x="822.5" y="2400" width="205" height="60" as="geometry" />
        </mxCell>
        <mxCell id="cQQtmC6lyxQOHg3nt5vb-131" value="&lt;span style=&quot;font-family: Verdana; font-size: 12px; font-style: normal; font-variant-ligatures: normal; font-variant-caps: normal; font-weight: 400; letter-spacing: normal; orphans: 2; text-align: justify; text-indent: 0px; text-transform: none; widows: 2; word-spacing: 0px; -webkit-text-stroke-width: 0px; text-decoration-thickness: initial; text-decoration-style: initial; text-decoration-color: initial; float: none; display: inline !important;&quot;&gt;&lt;font style=&quot;&quot; color=&quot;#000000&quot;&gt;incididunt ut laboLorem ipsum dolor sit amet,&amp;nbsp;&lt;/font&gt;&lt;br&gt;&lt;/span&gt;" style="text;whiteSpace=wrap;html=1;" vertex="1" parent="1">
          <mxGeometry x="847.5" y="2410" width="165" height="40" as="geometry" />
        </mxCell>
        <mxCell id="cQQtmC6lyxQOHg3nt5vb-132" value="" style="line;strokeWidth=1;html=1;rounded=0;shadow=0;labelBackgroundColor=none;fillColor=none;fontFamily=Verdana;fontSize=14;fontColor=#000000;align=center;comic=1;" vertex="1" parent="1">
          <mxGeometry x="40" y="1830" width="1040" height="10" as="geometry" />
        </mxCell>
        <mxCell id="cQQtmC6lyxQOHg3nt5vb-133" value="&lt;span style=&quot;font-family: Verdana; font-size: 12px; font-style: normal; font-variant-ligatures: normal; font-variant-caps: normal; font-weight: 400; letter-spacing: normal; orphans: 2; text-align: justify; text-indent: 0px; text-transform: none; widows: 2; word-spacing: 0px; -webkit-text-stroke-width: 0px; text-decoration-thickness: initial; text-decoration-style: initial; text-decoration-color: initial; float: none; display: inline !important;&quot;&gt;&lt;font style=&quot;&quot; color=&quot;#000000&quot;&gt;-incididunt ut laboLorem ipsum dolor sit amet,&amp;nbsp; &amp;nbsp;consectetur adipisicing elit, sed do eiusmod tempor&amp;nbsp; &amp;nbsp;incididunt ut laboincididunt ut laboLorem ipsum dolor &lt;br&gt;-sit amet, consectetur adipisicing elit, sed do eiusmod&amp;nbsp; &amp;nbsp;tempor incididunt ut laboincididunt ut laboLorem&amp;nbsp; &amp;nbsp;ipsum dolor sit amet, consectetur adipisicing elit, sed&amp;nbsp; &amp;nbsp;do &lt;br&gt;-eiusmod tempor incididunt ut laboincididunt ut &lt;br&gt;&amp;nbsp;laboLorem ipsum dolor sit amet, consectetur&amp;nbsp; &amp;nbsp;adipisicing &lt;br&gt;&amp;nbsp;elit, sed do eiusmod tempor incididunt ut labo &lt;br&gt;&amp;nbsp;incididunt ut laboLorem ipsum dolor sit amet, &lt;br&gt;-consectetur adipisicing elit, sed do eiusmod tempor&amp;nbsp; &amp;nbsp;incididunt ut labo&lt;br&gt;&lt;/font&gt;&lt;br&gt;&lt;/span&gt;" style="text;whiteSpace=wrap;html=1;" vertex="1" parent="1">
          <mxGeometry x="445" y="2250" width="340" height="200" as="geometry" />
        </mxCell>
      </root>
    </mxGraphModel>
  </diagram>
</mxfile>
